<svg width="127" height="40" viewBox="0 0 127 40" xmlns="http://www.w3.org/2000/svg"><g fill="none"><path d="M8.974 0h109.052c3.12 0 4.252.325 5.393.935a6.36 6.36 0 012.646 2.646c.61 1.14.935 2.272.935 5.393v22.052c0 3.12-.325 4.252-.935 5.393a6.36 6.36 0 01-2.646 2.646c-1.14.61-2.272.935-5.393.935H8.974c-3.12 0-4.252-.325-5.393-.935a6.36 6.36 0 01-2.646-2.646C.325 35.279 0 34.147 0 31.026V8.974c0-3.12.325-4.252.935-5.393A6.36 6.36 0 013.581.935C4.721.325 5.853 0 8.974 0z" fill="#A6A6A6"/><path d="M8.974 1c-2.694 0-3.79.212-4.921.817a5.36 5.36 0 00-2.236 2.236C1.212 5.184 1 6.28 1 8.973v22.053c0 2.694.212 3.79.817 4.921a5.36 5.36 0 002.236 2.236c1.131.605 2.227.817 4.92.817h109.053c2.694 0 3.79-.212 4.921-.817a5.36 5.36 0 002.236-2.236c.605-1.131.817-2.227.817-4.92V8.973c0-2.694-.212-3.79-.817-4.921a5.36 5.36 0 00-2.236-2.236c-1.131-.605-2.227-.817-4.92-.817H8.973z" fill="#000"/><path d="M58.19 21.336c2.298 0 3.813 1.817 3.813 4.623 0 2.813-1.506 4.621-3.778 4.621a3.07 3.07 0 01-2.849-1.584h-.043v4.484h-1.858V21.431h1.798v1.506h.035a3.212 3.212 0 012.882-1.6zm9.965 0c2.298 0 3.812 1.817 3.812 4.623 0 2.813-1.506 4.621-3.778 4.621a3.07 3.07 0 01-2.849-1.584h-.043v4.484H63.44V21.431h1.799v1.506h.034a3.212 3.212 0 012.883-1.6zm13.342-3.476c2.624 0 4.422 1.472 4.483 3.614h-1.876c-.112-1.24-1.137-1.987-2.634-1.987-1.497 0-2.521.757-2.521 1.858 0 .878.654 1.395 2.255 1.79l1.368.336c2.548.603 3.606 1.627 3.606 3.443 0 2.323-1.85 3.778-4.794 3.778-2.754 0-4.613-1.42-4.733-3.667h1.902c.138 1.232 1.334 2.04 2.969 2.04 1.566 0 2.693-.808 2.693-1.919 0-.963-.68-1.54-2.289-1.936l-1.61-.388c-2.28-.551-3.338-1.617-3.338-3.348 0-2.142 1.867-3.614 4.519-3.614zm15.705 3.46c2.625 0 4.295 1.79 4.295 4.639 0 2.856-1.662 4.639-4.295 4.639s-4.294-1.783-4.294-4.639c0-2.85 1.677-4.64 4.294-4.64zm15.048 0c2.504 0 4.08 1.72 4.08 4.466v.637h-6.395v.112a2.358 2.358 0 002.436 2.565 2.048 2.048 0 002.09-1.274h1.765c-.25 1.644-1.85 2.772-3.898 2.772-2.634 0-4.269-1.765-4.269-4.596 0-2.84 1.644-4.682 4.19-4.682zm-22.06-2.031v2.142h1.722v1.472H90.19v4.992c0 .775.345 1.136 1.102 1.136.204-.003.408-.018.61-.043v1.463a5.02 5.02 0 01-1.031.086c-1.833 0-2.548-.688-2.548-2.444v-5.19h-1.317V21.43h1.317v-2.14h1.867zm-53.132-1.222v12.418h-1.86V18.067h1.86zm10.78 0l4.483 12.418h-2.039l-1.136-3.356h-4.733l-1.137 3.356h-2.005l4.484-12.418h2.083zm59.184 3.27c.214-.001.428.022.637.069v1.738a2.598 2.598 0 00-.835-.112 1.873 1.873 0 00-1.937 2.083v5.37h-1.858v-9.054h1.772v1.541h.043a2.16 2.16 0 012.178-1.636zm-9.82 1.514c-1.506 0-2.4 1.162-2.4 3.108 0 1.962.894 3.106 2.4 3.106 1.506 0 2.401-1.144 2.401-3.106 0-1.955-.895-3.108-2.401-3.108zm-39.502.07c-1.42 0-2.375 1.23-2.375 3.038 0 1.824.955 3.046 2.375 3.046 1.446 0 2.393-1.196 2.393-3.046 0-1.834-.947-3.039-2.393-3.039zm9.965 0c-1.42 0-2.375 1.23-2.375 3.038 0 1.824.955 3.046 2.375 3.046 1.445 0 2.392-1.196 2.392-3.046 0-1.834-.947-3.039-2.392-3.039zm-20.86-2.789h-.051l-1.85 5.448h3.751l-1.85-5.448zm65.445 2.694a2.292 2.292 0 00-2.306 2.298h4.526a2.177 2.177 0 00-2.22-2.298zm-70.13-4.76l-1.23 4.545h-1.592l1.015-4.544h1.807zm29.533-7.942a1.56 1.56 0 011.414.794h.07v-.72h.852v4.54c0 1.03-.807 1.684-2.08 1.684-1.125 0-1.853-.505-1.948-1.27h.91c.075.327.45.538 1.05.538.74 0 1.18-.352 1.18-.947v-.864h-.067a1.514 1.514 0 01-1.39.756c-1.15 0-1.86-.888-1.86-2.237 0-1.373.718-2.274 1.869-2.274zm-30.843-.012c1.253 0 2.008.856 2.008 2.27v.31h-3.18v.05a1.19 1.19 0 001.2 1.29 1.08 1.08 0 001.071-.546h.856a1.828 1.828 0 01-1.952 1.303 2.045 2.045 0 01-2.08-2.325 2.077 2.077 0 012.077-2.352zm7.443 0c1.253 0 2.009.856 2.009 2.27v.31h-3.18v.05a1.19 1.19 0 001.2 1.29 1.08 1.08 0 001.07-.546h.856a1.828 1.828 0 01-1.951 1.303 2.045 2.045 0 01-2.08-2.325 2.077 2.077 0 012.076-2.352zm29.004 0c1.253 0 2.01.856 2.01 2.27v.31h-3.18v.05a1.19 1.19 0 001.199 1.29 1.08 1.08 0 001.07-.546h.856a1.828 1.828 0 01-1.95 1.303 2.045 2.045 0 01-2.08-2.325 2.077 2.077 0 012.075-2.352zm-21.99 1.558h-.864a1.005 1.005 0 00-1.063-.764c-.744 0-1.2.57-1.2 1.53 0 .976.46 1.559 1.2 1.559a.979.979 0 001.063-.74h.865a1.762 1.762 0 01-1.923 1.534 2.068 2.068 0 01-2.114-2.353 2.053 2.053 0 012.109-2.324 1.777 1.777 0 011.928 1.558zm48.35-1.558c1.013 0 1.675.471 1.762 1.265h-.852c-.082-.33-.405-.542-.91-.542-.495 0-.872.236-.872.587 0 .27.227.439.716.55l.748.174c.856.199 1.257.567 1.257 1.229 0 .847-.79 1.414-1.865 1.414-1.071 0-1.77-.484-1.849-1.282h.89c.158.39.563.623.98.562.553 0 .947-.248.947-.608 0-.269-.211-.442-.662-.55l-.785-.182c-.857-.203-1.253-.587-1.253-1.257 0-.798.731-1.36 1.749-1.36zm-10.001 0c1.129 0 1.765.562 1.765 1.513v3.077h-.855v-.633h-.07a1.517 1.517 0 01-1.353.707 1.36 1.36 0 01-1.5-1.348c0-.81.603-1.278 1.674-1.344l1.22-.07v-.389c0-.476-.315-.744-.922-.744-.496 0-.84.182-.939.5h-.86c.09-.773.818-1.27 1.84-1.27zm-30.163 0c1.129 0 1.765.562 1.765 1.513v3.077h-.855v-.633h-.07c-.29.462-.807.732-1.353.707a1.36 1.36 0 01-1.5-1.348c0-.81.603-1.278 1.674-1.344l1.22-.07v-.389c0-.476-.314-.744-.922-.744-.496 0-.84.182-.938.5h-.86c.09-.773.818-1.27 1.84-1.27zM90.401 8.44v6.26h-.852v-.71h-.07a1.563 1.563 0 01-1.414.785c-1.146 0-1.87-.901-1.87-2.328 0-1.423.732-2.324 1.87-2.324a1.484 1.484 0 011.38.79h.067V8.441h.889zm-21.653 1.683c.133-.002.266.01.396.037v.877a2.434 2.434 0 00-.496-.054 1.055 1.055 0 00-1.15 1.059v2.659h-.888v-4.503h.855v.69h.067a1.22 1.22 0 011.216-.765zm-30.293-1.39v.844h-1.873v5.124h-.927V9.578h-1.877v-.843h4.677zm6.486-.293v6.26h-.888V8.44h.888zm37.656 1.683c.133-.002.266.01.397.037v.877a2.434 2.434 0 00-.496-.054 1.055 1.055 0 00-1.15 1.059v2.659h-.889v-4.503h.856v.69h.066a1.22 1.22 0 011.216-.765zM57.328 8.441v2.481h.07a1.386 1.386 0 011.373-.806 1.483 1.483 0 011.551 1.678v2.908h-.89v-2.688c0-.72-.334-1.084-.962-1.084a1.052 1.052 0 00-1.134 1.142v2.63h-.889V8.44h.881zm42.893 2.134c.303.325.441.771.376 1.212v2.915h-.888V12.01c0-.724-.315-1.084-.972-1.084a1.033 1.033 0 00-1.075 1.141v2.635h-.889v-4.503h.855v.715h.067c.23-.527.77-.849 1.344-.802.443-.034.878.137 1.182.463zm-5.724 2.092l-1.1.07c-.62.042-.901.253-.901.65 0 .405.351.64.835.64a1.062 1.062 0 001.166-.984v-.376zm-30.163 0l-1.1.07c-.62.042-.901.253-.901.65 0 .405.352.64.835.64a1.062 1.062 0 001.166-.984v-.376zm23.983-1.745c-.748 0-1.203.579-1.203 1.526 0 .955.45 1.53 1.203 1.53.749 0 1.212-.583 1.212-1.526 0-.938-.468-1.53-1.212-1.53zm-16.421 0c-.765 0-1.194.575-1.194 1.472s.43 1.472 1.194 1.472c.762 0 1.22-.57 1.22-1.472 0-.897-.463-1.472-1.22-1.472zm5.356-.054a1.152 1.152 0 00-1.166 1.167h2.275a1.086 1.086 0 00-1.109-1.167zm-29.004 0a1.152 1.152 0 00-1.166 1.167h2.274a1.086 1.086 0 00-1.108-1.167zm-7.443 0a1.152 1.152 0 00-1.166 1.167h2.274a1.086 1.086 0 00-1.108-1.167zm1.55-2.845l-1.162 1.423h-.918l1.038-1.423h1.042zm7.444 0l-1.162 1.423h-.918l1.038-1.423h1.042zm-26.916 5.951l.28.017c1.596.05 3.075.85 3.99 2.158a4.949 4.949 0 00-2.356 4.152 4.782 4.782 0 002.92 4.399 10.962 10.962 0 01-1.519 3.092c-.894 1.338-1.832 2.645-3.32 2.67-1.447.033-1.933-.852-3.591-.852-1.675 0-2.193.827-3.58.885-1.417.052-2.5-1.428-3.427-2.753-1.853-2.707-3.296-7.628-1.362-10.977a5.315 5.315 0 014.473-2.727c1.419-.03 2.737.958 3.609.958.856 0 2.483-1.181 4.163-1.005zm.297-5.254a4.872 4.872 0 01-1.114 3.49 4.099 4.099 0 01-3.237 1.531 4.636 4.636 0 011.144-3.361 4.957 4.957 0 013.207-1.66z" fill="#FFF"/></g></svg>