<svg width="135" height="40" viewBox="0 0 135 40" xmlns="http://www.w3.org/2000/svg"><defs><linearGradient x1="61.045%" y1="4.946%" x2="26.513%" y2="71.879%" id="a"><stop stop-color="#00A0FF" offset="0%"/><stop stop-color="#00A1FF" offset="1%"/><stop stop-color="#00BEFF" offset="26%"/><stop stop-color="#00D2FF" offset="51%"/><stop stop-color="#00DFFF" offset="76%"/><stop stop-color="#00E3FF" offset="100%"/></linearGradient><linearGradient x1="107.685%" y1="50%" x2="-130.64%" y2="50%" id="b"><stop stop-color="#FFE000" offset="0%"/><stop stop-color="#FFBD00" offset="41%"/><stop stop-color="orange" offset="78%"/><stop stop-color="#FF9C00" offset="100%"/></linearGradient><linearGradient x1="86.271%" y1="30.873%" x2="-50.18%" y2="136.109%" id="c"><stop stop-color="#FF3A44" offset="0%"/><stop stop-color="#C31162" offset="100%"/></linearGradient><linearGradient x1="-18.825%" y1="-11.91%" x2="42.086%" y2="35.079%" id="d"><stop stop-color="#32A071" offset="0%"/><stop stop-color="#2DA771" offset="7%"/><stop stop-color="#15CF74" offset="48%"/><stop stop-color="#06E775" offset="80%"/><stop stop-color="#00F076" offset="100%"/></linearGradient></defs><g fill="none" fill-rule="evenodd"><g fill-rule="nonzero"><path d="M5 0h125a5 5 0 015 5v30a5 5 0 01-5 5H5a5 5 0 01-5-5V5a5 5 0 015-5z" fill="#A6A6A6"/><path d="M5 1a4 4 0 00-4 4v30a4 4 0 004 4h125a4 4 0 004-4V5a4 4 0 00-4-4H5z" fill="#000"/></g><path d="M68.14 21.75A4.26 4.26 0 1072.41 26a4.19 4.19 0 00-4.27-4.25zm0 6.83a2.58 2.58 0 112.4-2.58 2.46 2.46 0 01-2.4 2.58zm-9.32-6.83A4.26 4.26 0 1063.09 26a4.19 4.19 0 00-4.27-4.25zm0 6.83a2.58 2.58 0 112.4-2.58 2.46 2.46 0 01-2.4 2.58zm-11.08-5.52v1.8h4.32a3.77 3.77 0 01-1 2.27 4.42 4.42 0 01-3.34 1.32 4.8 4.8 0 110-9.6A4.64 4.64 0 0151 20.14l1.27-1.27a6.3 6.3 0 00-4.53-1.82 6.61 6.61 0 100 13.21 6.07 6.07 0 004.61-1.85 6 6 0 001.56-4.23 6.27 6.27 0 00-.09-1.12h-6.08zm45.31 1.4a4 4 0 00-3.64-2.71 4 4 0 00-4 4.25 4.23 4.23 0 007.76 2.37l-1.45-1a2.41 2.41 0 01-2.09 1.17 2.15 2.15 0 01-2.06-1.29l5.69-2.35-.21-.44zm-5.8 1.42a2.34 2.34 0 012.23-2.49 1.64 1.64 0 011.57.91l-3.8 1.58zM82.63 30h1.87V17.5h-1.87V30zm-3.06-7.3h-.07a2.94 2.94 0 00-2.24-1 4.26 4.26 0 000 8.51 2.88 2.88 0 002.24-1h.07v.61c0 1.63-.87 2.5-2.27 2.5a2.36 2.36 0 01-2.15-1.51l-1.62.67A4 4 0 0077.3 34c2.19 0 4-1.29 4-4.43V22h-1.73v.7zm-2.15 5.88a2.58 2.58 0 010-5.15A2.39 2.39 0 0179.7 26a2.38 2.38 0 01-2.28 2.58zm24.39-11.08h-4.48V30h1.87v-4.74h2.61a3.89 3.89 0 100-7.76zm0 6H99.2v-4.26h2.65a2.14 2.14 0 010 4.28l-.04-.02zm11.54-1.79a3.49 3.49 0 00-3.33 1.91l1.65.69a1.78 1.78 0 011.71-.91 1.8 1.8 0 012 1.61v.12a4.18 4.18 0 00-1.95-.48c-1.78 0-3.6 1-3.6 2.82a2.89 2.89 0 003.11 2.75 2.65 2.65 0 002.38-1.22h.06v1h1.8v-4.81c0-2.19-1.66-3.46-3.79-3.46l-.04-.02zm-.23 6.85c-.61 0-1.46-.31-1.46-1.06 0-1 1.06-1.34 2-1.34a3.32 3.32 0 011.7.42 2.26 2.26 0 01-2.2 2l-.04-.02zM123.74 22l-2.14 5.42h-.06L119.32 22h-2l3.33 7.58-1.9 4.21h1.95L125.82 22h-2.08zm-16.8 8h1.86V17.5h-1.86V30z" fill="#FFF" fill-rule="nonzero"/><path d="M50.854 7c.529 0 .967.136 1.303.403.333.267.553.563.653.883l.027.087-.892.372-.03-.11c-.045-.169-.16-.33-.34-.477-.18-.146-.416-.22-.704-.22-.272 0-.507.076-.696.226a.652.652 0 00-.276.537c0 .193.082.352.25.488.185.146.46.28.82.397.305.098.55.19.752.281.203.091.412.214.62.366.217.157.383.356.493.592.11.233.165.505.165.81 0 .305-.064.583-.191.825a1.584 1.584 0 01-.511.581 2.5 2.5 0 01-1.401.427c-.454 0-.903-.149-1.334-.444a2.088 2.088 0 01-.858-1.257l-.021-.084.89-.36.029.11c.079.31.242.572.484.783.244.212.509.315.81.315.312 0 .58-.082.8-.244a.744.744 0 00.315-.637c0-.305-.104-.532-.316-.695-.227-.173-.595-.338-1.096-.49-.544-.172-.963-.399-1.247-.674-.293-.285-.442-.65-.442-1.09 0-.457.183-.859.544-1.196.359-.335.83-.505 1.4-.505zm10.75 0c.896 0 1.659.318 2.269.944.608.626.916 1.396.916 2.291 0 .899-.307 1.671-.912 2.294-.606.623-1.371.939-2.272.939-.901 0-1.666-.316-2.271-.939-.605-.622-.912-1.394-.912-2.294 0-.901.307-1.673.912-2.295.605-.623 1.37-.94 2.27-.94zm29.918 0c.53 0 .966.136 1.302.403.333.267.553.563.654.883l.027.087-.893.372-.03-.11c-.045-.169-.159-.33-.34-.477-.178-.146-.416-.22-.704-.22-.272 0-.506.076-.696.226a.652.652 0 00-.276.537c0 .193.083.352.252.488.183.146.46.28.82.397.304.098.55.19.751.281.202.091.411.214.62.366.217.157.382.356.493.592.11.233.164.505.164.81 0 .305-.063.583-.19.825a1.578 1.578 0 01-.512.581 2.489 2.489 0 01-1.4.427c-.454 0-.904-.149-1.334-.444a2.08 2.08 0 01-.858-1.257l-.02-.084.89-.36.028.11c.08.31.241.572.483.783.244.212.51.315.811.315.312 0 .581-.082.8-.244a.744.744 0 00.315-.637c0-.305-.104-.532-.316-.695-.227-.173-.595-.338-1.096-.49-.544-.172-.964-.399-1.247-.674-.293-.285-.442-.65-.442-1.09 0-.457.183-.859.543-1.196.36-.335.83-.505 1.401-.505zm3.887.134v3.905c0 .448.118.814.349 1.088.23.272.558.404 1 .404.438 0 .774-.136 1-.404.233-.274.35-.64.35-1.088V7.134h.972v3.871c0 .732-.21 1.331-.626 1.782-.416.452-.987.681-1.695.681-.684 0-1.25-.23-1.677-.684-.427-.453-.643-1.052-.643-1.779v-3.87h.97zm-19.324 0c.492 0 .925.166 1.287.491.364.33.548.747.548 1.243 0 .305-.08.577-.239.811a1.477 1.477 0 01-.472.445c.24.111.443.273.607.485.203.264.305.572.305.916 0 .52-.192.955-.574 1.297-.377.34-.83.513-1.345.513h-2.386v-6.2zm-33.15 0c.945 0 1.713.291 2.284.864.569.572.858 1.325.858 2.236 0 .912-.289 1.664-.858 2.237-.571.573-1.339.863-2.284.863H41v-6.2zm4.995 0v6.2h-.971v-6.2h.97zm8.12 0c.532 0 .999.18 1.387.534.392.356.59.81.59 1.352 0 .54-.198.996-.59 1.352a2.002 2.002 0 01-1.387.533h-1.174v2.43h-.971v-6.2zm10.715 0l2.784 4.458-.023-.843V7.135h.97v6.2h-.96l-.03-.047-2.89-4.636.026.843v3.84h-.971v-6.2h1.094zm5.876 0v6.2h-.97v-6.2h.97zm7.29 0v5.264h2.598v.937h-3.568v-6.2h.97zm7.073 0v.938h-2.732v1.702h2.464v.92h-2.464v1.704h2.732v.937h-3.702v-6.2h3.702zm15.261 0c.532 0 .998.18 1.386.534.392.355.59.81.59 1.352 0 .442-.146.837-.434 1.175a1.884 1.884 0 01-.962.613l1.631 2.362v.165h-1.067l-.029-.045-1.588-2.385h-.702v2.43h-.97v-6.2zm-40.66.804a2.12 2.12 0 00-1.56.645c-.421.428-.636.984-.636 1.652 0 .667.215 1.223.637 1.651.423.428.947.645 1.559.645.613 0 1.137-.217 1.559-.645.423-.428.638-.984.638-1.651 0-.668-.215-1.224-.638-1.652a2.113 2.113 0 00-1.56-.645zm-18.67.134h-.964v4.325h.964c.662 0 1.193-.19 1.577-.566.382-.375.577-.913.577-1.597 0-.678-.195-1.214-.578-1.592-.384-.378-.914-.57-1.576-.57zm33.267 2.556h-1.417v1.77h1.452c.268 0 .48-.09.646-.278a.892.892 0 00.251-.612c0-.222-.085-.42-.259-.606-.172-.185-.39-.274-.673-.274zm26.08-2.556h-1.192v1.912h1.141c.284 0 .521-.09.724-.276a.88.88 0 00.3-.688.953.953 0 00-.269-.654c-.176-.198-.408-.294-.705-.294zm-46.215 0h-1.191v1.895h1.19c.298 0 .529-.096.706-.293a.952.952 0 00.267-.654.952.952 0 00-.267-.654c-.177-.197-.408-.294-.705-.294zm20.052 0h-1.334v1.635h1.3c.265 0 .47-.084.626-.257a.812.812 0 00.238-.565.812.812 0 00-.23-.56.758.758 0 00-.6-.253z" fill="#FFF"/><g fill-rule="nonzero"><path d="M.673.408a2 2 0 00-.47 1.4v22.12a1.94 1.94 0 00.47 1.4l.07.08 12.39-12.39v-.3L.743.338l-.07.07z" fill="url(#a)" transform="translate(9.767 7.132)"/><path d="M17.233 17.148l-4.1-4.13v-.3l4.1-4.13.09.06 4.91 2.78c1.4.79 1.4 2.09 0 2.89l-4.89 2.78-.11.05z" fill="url(#b)" transform="translate(9.767 7.132)"/><path d="M17.353 17.088l-4.22-4.22-12.46 12.46a1.62 1.62 0 002.07.07l14.61-8.31" fill="url(#c)" transform="translate(9.767 7.132)"/><path d="M17.353 8.648L2.743.348a1.61 1.61 0 00-2.07.06l12.46 12.46 4.22-4.22z" fill="url(#d)" transform="translate(9.767 7.132)"/><path d="M27 24.13l-14.49 8.25a1.66 1.66 0 01-2 0l-.07.07.07.08a1.66 1.66 0 002 0l14.61-8.31-.12-.09z" fill="#000" opacity=".2"/><path d="M10.44 32.32a2 2 0 01-.44-1.41v.15a1.94 1.94 0 00.47 1.4l.07-.07-.1-.07zM32 21.3l-5 2.83.09.09L32 21.44A1.75 1.75 0 0033.06 20 1.86 1.86 0 0132 21.3z" fill="#000" opacity=".12"/><path d="M12.51 7.62L32 18.7c.54.24.933.723 1.06 1.3A1.75 1.75 0 0032 18.56L12.51 7.48c-1.39-.8-2.54-.14-2.54 1.46v.15c.03-1.6 1.15-2.26 2.54-1.47z" fill="#FFF" opacity=".25"/></g></g></svg>