<?xml version="1.0" encoding="utf-8"?>
<!-- Generator: Adobe Illustrator 21.1.0, SVG Export Plug-In . SVG Version: 6.00 Build 0)  -->
<svg version="1.1" id="icon" xmlns="http://www.w3.org/2000/svg" xmlns:xlink="http://www.w3.org/1999/xlink" x="0px" y="0px"
	 viewBox="0 0 288 288" style="enable-background:new 0 0 288 288;" xml:space="preserve">
<path d="M260.5,136c0-11.3-9.2-20.5-20.5-20.5h-73.8c5.7-21.3,1.8-50.2-1.8-65c-2-8.3-9.1-16-18.7-14.9c-6.6,0.8-14.2,6.5-14.2,19.9
	c0,26.7-11.2,53.3-25.5,60.4c-2.2,1.1-3.1,3.8-2,6c0.8,1.6,2.4,2.5,4,2.5c0.7,0,1.4-0.2,2-0.5c17.4-8.7,30.5-38.1,30.5-68.5
	c0-6.3,2.4-10.5,6.3-11c3.3-0.4,7.4,2.2,8.8,8.1c3.5,14.2,8,46.3,0.2,65.7c-0.6,1.4-0.4,3,0.5,4.2c0.8,1.2,2.2,2,3.7,2h80
	c6.3,0,11.5,5.2,11.5,11.5s-5.2,11.5-11.5,11.5h-56c-2.5,0-4.5,2-4.5,4.5s2,4.5,4.5,4.5h50c5.2,0,9.5,4.3,9.5,9.5s-4.3,9.5-9.5,9.5
	c-0.3,0-0.7,0-1,0.1c-0.3-0.1-0.7-0.1-1-0.1h-48c-2.5,0-4.5,2-4.5,4.5s2,4.5,4.5,4.5h36c5.2,0,9.5,4.3,9.5,9.5s-4.3,9.5-9.5,9.5h-40
	c-2.5,0-4.5,2-4.5,4.5s2,4.5,4.5,4.5h24c5.2,0,9.5,4.3,9.5,9.5s-4.3,9.5-9.5,9.5h-71.2l-48.3-18.6V116c0-2.5-2-4.5-4.5-4.5H36
	c-2.5,0-4.5,2-4.5,4.5v112c0,2.5,2,4.5,4.5,4.5h44c2.5,0,4.5-2,4.5-4.5v-5.4l45.9,17.6c0.5,0.2,1.1,0.3,1.6,0.3h72
	c10.2,0,18.5-8.3,18.5-18.5c0-3.5-1-6.7-2.7-9.5h0.2c10.2,0,18.5-8.3,18.5-18.5c0-3.5-1-6.8-2.7-9.6c9.4-0.9,16.7-8.8,16.7-18.4
	c0-4.3-1.5-8.2-4-11.4C255.6,151.4,260.5,144.3,260.5,136z M75.5,223.5h-35v-103h35V223.5z"/>
</svg>
