<?xml version="1.0" encoding="utf-8"?>
<!-- Generator: Adobe Illustrator 25.2.1, SVG Export Plug-In . SVG Version: 6.00 Build 0)  -->
<svg version="1.1" id="icon" xmlns="http://www.w3.org/2000/svg" xmlns:xlink="http://www.w3.org/1999/xlink" x="0px" y="0px"
	 viewBox="0 0 288 288" style="enable-background:new 0 0 288 288;" xml:space="preserve">
<g>
	<path d="M144,124.6c-10.7,0-19.4,8.7-19.4,19.4s8.7,19.4,19.4,19.4s19.4-8.7,19.4-19.4S154.7,124.6,144,124.6z M144,154.4
		c-5.7,0-10.4-4.7-10.4-10.4s4.7-10.4,10.4-10.4s10.4,4.7,10.4,10.4S149.7,154.4,144,154.4z"/>
	<path d="M53,144c0-24.3,9.5-47.2,26.7-64.4c1.8-1.8,1.8-4.6,0-6.4c-1.8-1.8-4.6-1.8-6.4,0C54.4,92.2,44,117.3,44,144
		c0,26.7,10.4,51.8,29.3,70.7c0.9,0.9,2,1.3,3.2,1.3s2.3-0.4,3.2-1.3c1.8-1.8,1.8-4.6,0-6.4C62.4,191.2,53,168.3,53,144z"/>
	<path d="M25.5,144c0-31.6,12.3-61.4,34.7-83.8c1.8-1.8,1.8-4.6,0-6.4c-1.8-1.8-4.6-1.8-6.4,0C29.8,77.9,16.5,110,16.5,144
		s13.3,66.1,37.3,90.1c0.9,0.9,2,1.3,3.2,1.3s2.3-0.4,3.2-1.3c1.8-1.8,1.8-4.6,0-6.4C37.9,205.4,25.5,175.6,25.5,144z"/>
	<path d="M234.1,53.9c-1.8-1.8-4.6-1.8-6.4,0c-1.8,1.8-1.8,4.6,0,6.4c22.4,22.4,34.7,52.1,34.7,83.8s-12.3,61.4-34.7,83.8
		c-1.8,1.8-1.8,4.6,0,6.4c0.9,0.9,2,1.3,3.2,1.3s2.3-0.4,3.2-1.3c24.1-24.1,37.3-56.1,37.3-90.1S258.2,77.9,234.1,53.9z"/>
	<path d="M214.7,73.3c-1.8-1.8-4.6-1.8-6.4,0c-1.8,1.8-1.8,4.6,0,6.4C225.6,96.8,235,119.7,235,144s-9.5,47.2-26.7,64.4
		c-1.8,1.8-1.8,4.6,0,6.4c0.9,0.9,2,1.3,3.2,1.3s2.3-0.4,3.2-1.3c18.9-18.9,29.3-44,29.3-70.7S233.6,92.2,214.7,73.3z"/>
	<path d="M197.6,90.4c-1.8-1.8-4.6-1.8-6.4,0c-1.8,1.8-1.8,4.6,0,6.4c12.6,12.6,19.6,29.4,19.6,47.3s-7,34.6-19.6,47.3
		c-1.8,1.8-1.8,4.6,0,6.4c0.9,0.9,2,1.3,3.2,1.3s2.3-0.4,3.2-1.3c14.3-14.3,22.2-33.4,22.2-53.6S211.9,104.7,197.6,90.4z"/>
	<path d="M182.8,105.2c-1.8-1.8-4.6-1.8-6.4,0c-1.8,1.8-1.8,4.6,0,6.4c8.7,8.7,13.4,20.2,13.4,32.4s-4.8,23.7-13.4,32.4
		c-1.8,1.8-1.8,4.6,0,6.4c0.9,0.9,2,1.3,3.2,1.3s2.3-0.4,3.2-1.3c10.4-10.4,16.1-24.1,16.1-38.8S193.1,115.6,182.8,105.2z"/>
	<path d="M111.6,105.2c-1.8-1.8-4.6-1.8-6.4,0c-10.4,10.4-16.1,24.1-16.1,38.8s5.7,28.4,16.1,38.8c0.9,0.9,2,1.3,3.2,1.3
		s2.3-0.4,3.2-1.3c1.8-1.8,1.8-4.6,0-6.4c-8.7-8.7-13.4-20.2-13.4-32.4s4.8-23.7,13.4-32.4C113.4,109.8,113.4,107,111.6,105.2z"/>
	<path d="M77.2,144c0-17.9,7-34.6,19.6-47.3c1.8-1.8,1.8-4.6,0-6.4c-1.8-1.8-4.6-1.8-6.4,0c-14.3,14.3-22.2,33.4-22.2,53.6
		s7.9,39.3,22.2,53.6c0.9,0.9,2,1.3,3.2,1.3s2.3-0.4,3.2-1.3c1.8-1.8,1.8-4.6,0-6.4C84.1,178.6,77.2,161.9,77.2,144z"/>
</g>
</svg>
