<?xml version="1.0" encoding="utf-8"?><svg xmlns="http://www.w3.org/2000/svg" x="0px" y="0px" viewBox="0 0 288 288"><path d="M146.5,92.8c-28.1,0-50.9,22.8-50.9,50.9c0,28.1,22.8,50.9,50.9,50.9s50.9-22.8,50.9-50.9 C197.4,115.7,174.6,92.8,146.5,92.8z M146.5,185.6c-23.1,0-41.9-18.8-41.9-41.9c0-23.1,18.8-41.9,41.9-41.9s41.9,18.8,41.9,41.9 C188.4,166.8,169.6,185.6,146.5,185.6z"/><path d="M264.2,172.6L240.6,154c0.3-2.9,0.6-6.3,0.6-10c0-3.7-0.3-7.1-0.6-10l23.7-18.6c4-3.2,5.1-8.9,2.6-13.5c0,0,0-0.1-0.1-0.1 l-24.3-42.3c-2.5-4.5-8-6.5-12.9-4.7c0,0-0.1,0-0.1,0.1l-27.9,11.3c-5.4-4-11.2-7.3-17.1-10l-4.2-29.8c-0.6-5.2-5.1-9.1-10.4-9.1 h-48.6c-5.3,0-9.8,3.9-10.4,9l-4.3,29.9c-5.7,2.6-11.4,5.9-17.1,10L61.7,54.8c-4.9-1.9-10.5,0.1-13,4.7l-24.2,42.2 c-2.7,4.6-1.6,10.3,2.6,13.6L50.7,134c-0.4,3.7-0.6,7-0.6,10s0.2,6.3,0.6,10L27,172.6c-4,3.2-5.1,8.9-2.6,13.5c0,0,0,0.1,0.1,0.1 l24.3,42.3c2.5,4.5,8,6.5,12.9,4.7c0,0,0.1,0,0.1-0.1l27.9-11.3c5.4,4,11.2,7.3,17.1,10l4.2,29.8c0.6,5.2,5.1,9.1,10.4,9.1h48.6 c5.3,0,9.8-3.9,10.4-9l4.3-29.9c5.7-2.6,11.4-5.9,17.1-10l27.9,11.3c4.9,1.9,10.5-0.1,13-4.7l24.3-42.3c0,0,0-0.1,0.1-0.1 C269.3,181.5,268.2,175.8,264.2,172.6z M258.9,181.8l-24.2,42.3c0,0,0,0.1-0.1,0.1c-0.4,0.7-1.1,0.9-1.8,0.7l-30.2-12.2 c-1.5-0.6-3.1-0.4-4.4,0.6c-6.6,5-13,8.7-19.5,11.4c-1.5,0.6-2.5,1.9-2.7,3.5l-4.6,32.5c-0.1,0.7-0.7,1.2-1.5,1.2h-48.6 c-0.8,0-1.4-0.5-1.5-1.3l-4.6-32.4c-0.2-1.6-1.3-2.9-2.7-3.5c-6.8-2.8-13.4-6.6-19.5-11.4c-0.8-0.6-1.8-0.9-2.8-0.9 c-0.6,0-1.1,0.1-1.7,0.3l-30.1,12.2c-0.6,0.2-1.5,0-1.9-0.6c0,0,0-0.1-0.1-0.1l-24.2-42.3c-0.4-0.8-0.3-1.7,0.3-2.1l25.6-20.2 c1.2-1,1.9-2.5,1.7-4.1c-0.6-4.5-0.8-8.1-0.8-11.4c0-3.3,0.3-6.9,0.8-11.4c0.2-1.6-0.4-3.1-1.7-4.1l-25.6-20.2 c-0.5-0.4-0.8-1.3-0.4-2.1l24.3-42.3c0,0,0-0.1,0.1-0.1c0.4-0.7,1.1-0.9,1.8-0.7l30.2,12.2c1.5,0.6,3.1,0.4,4.4-0.6 c6.6-5,13-8.7,19.5-11.4c1.5-0.6,2.5-1.9,2.7-3.5l4.6-32.5c0.1-0.7,0.7-1.2,1.5-1.2h48.6c0.8,0,1.4,0.5,1.5,1.3l4.6,32.4 c0.2,1.6,1.3,2.9,2.7,3.5c6.8,2.8,13.4,6.6,19.5,11.4c1.3,1,3,1.2,4.4,0.6l30.1-12.2c0.6-0.2,1.5,0,1.9,0.6c0,0,0,0.1,0.1,0.1 l24.2,42.3c0.4,0.8,0.3,1.7-0.3,2.1L233,128.5c-1.2,1-1.9,2.5-1.7,4.1c0.6,4.6,0.8,8,0.8,11.4c0,3.4-0.2,6.8-0.8,11.4 c-0.2,1.6,0.4,3.1,1.7,4.1l25.6,20.2C259.2,180.1,259.3,181.1,258.9,181.8z"/></svg>