<?xml version="1.0" encoding="utf-8"?>
<!-- Generator: Adobe Illustrator 21.1.0, SVG Export Plug-In . SVG Version: 6.00 Build 0)  -->
<svg version="1.1" id="icon" xmlns="http://www.w3.org/2000/svg" xmlns:xlink="http://www.w3.org/1999/xlink" x="0px" y="0px"
	 viewBox="0 0 288 288" style="enable-background:new 0 0 288 288;" xml:space="preserve">
<g>
	<path d="M144,71.4c-38.3,0-57.1,28-57.1,67.4c0,39.4,13.1,72.6,57.1,72.6c4.5,0,8.6-0.4,12.5-1.1l-13.3-12.4
		c-5.9-5.5-6.3-14.9-0.7-20.8l1.5-1.6c2.9-3.1,6.8-4.7,10.8-4.7c3.6,0,7.2,1.3,10,4l20.7,19.3c11.2-13.4,15.7-33.3,15.7-55.2
		C201.1,99.4,182.3,71.4,144,71.4z M183.8,180.2l-13-12.1c-4.4-4.1-10.2-6.4-16.2-6.4c-6.6,0-12.9,2.8-17.4,7.5l-1.5,1.6
		c-8.1,8.7-8.4,21.8-1.3,30.8c-12.5-1.8-21.8-7.3-28.1-16.8c-7-10.5-10.6-26.1-10.6-46.1c0-18,4.2-32.8,12.3-42.9
		c8.2-10.3,20.3-15.5,35.9-15.5s27.7,5.2,35.9,15.5c8,10.1,12.3,24.9,12.3,42.9C192.1,155.7,189.3,169.7,183.8,180.2z"/>
	<path d="M228.7,222.1c18.3-21.3,28.3-50.4,28.3-83.3c0-32.9-10.1-61-29.1-81.3C207.7,36,178.7,24.7,144,24.7S80.3,36,60.1,57.5
		C41.1,77.8,31,105.9,31,138.8c0,34.7,9.2,63.9,26.5,84.3c9.6,11.3,21.6,19.9,35.7,25.8c14.7,6.1,31.8,9.2,50.8,9.2
		c15.4,0,29.8-2.4,42.8-7.2l15.9,14.8c4.4,4.1,10.2,6.4,16.2,6.4c6.6,0,12.9-2.8,17.4-7.5l1.5-1.6c8.9-9.6,8.4-24.6-1.2-33.5
		L228.7,222.1z M231.2,256.8l-1.5,1.6c-2.9,3.1-6.8,4.7-10.8,4.7c-3.6,0-7.2-1.3-10-4l-20-18.7c-12.8,5.5-27.7,8.6-44.8,8.6
		c-73.7,0-104-48-104-110.3C40,78.5,76.6,33.7,144,33.7s104,44.9,104,105.1c0,32.4-10.5,63-32,83.7l14.5,13.5
		C236.4,241.5,236.7,250.8,231.2,256.8z"/>
</g>
</svg>
